<svg xmlns="http://www.w3.org/2000/svg" width="45" height="28" viewBox="0 0 45 28" fill="none"><path fill-rule="evenodd" clip-rule="evenodd" d="M5.79919 8.00205C6.16623 7.9997 7.25705 7.8945 7.71911 9.56431C8.03035 10.6891 8.52614 12.5316 9.20648 15.0918H9.48356C10.2132 12.3927 10.7144 10.5502 10.9872 9.56431C11.454 7.8771 12.6212 8.00208 13.0881 8.00208L16.69 8.00209V20H13.0188V12.9294H12.7726L10.7261 20H7.96395L5.91742 12.9242H5.67124V20H2V8.00209L5.79919 8.00205ZM21.9619 8.00209V15.0779H22.2547L24.7442 9.25951C25.2274 8.10163 26.2573 8.00209 26.2573 8.00209H29.81V20H26.0621V12.9242H25.7692L23.3286 18.7426C22.8454 19.8952 21.7666 20 21.7666 20H18.214V8.00209H21.9619ZM42.7644 13.7036C42.2416 15.2899 40.5999 16.426 38.7822 16.426H34.8518V20H31.2877V13.7036H42.7644Z" fill="#0F754E"></path><path fill-rule="evenodd" clip-rule="evenodd" d="M38.9541 8.00244H31.1008C31.2877 10.6736 33.436 12.9603 35.6599 12.9603H43.0121C43.4364 10.7402 41.9758 8.00244 38.9541 8.00244Z" fill="url(#paint0_linear_1499_18)"></path><defs><linearGradient id="paint0_linear_1499_18" x1="43.0842" y1="11.1211" x2="31.1008" y2="11.1211" gradientUnits="userSpaceOnUse"><stop stop-color="#1F5CD7"></stop><stop offset="1" stop-color="#02AEFF"></stop></linearGradient></defs></svg>