<svg xmlns="http://www.w3.org/2000/svg" width="45" height="28" viewBox="0 0 45 28" fill="none"><path fill-rule="evenodd" clip-rule="evenodd" d="M22.9997 20.8328C21.411 22.1719 19.3502 22.9803 17.0983 22.9803C12.0734 22.9803 7.99988 18.9553 7.99988 13.9901C7.99988 9.02502 12.0734 5 17.0983 5C19.3502 5 21.411 5.80836 22.9997 7.14743C24.5885 5.80836 26.6493 5 28.9012 5C33.9261 5 37.9996 9.02502 37.9996 13.9901C37.9996 18.9553 33.9261 22.9803 28.9012 22.9803C26.6493 22.9803 24.5885 22.1719 22.9997 20.8328Z" fill="#ED0006"></path><path fill-rule="evenodd" clip-rule="evenodd" d="M22.9996 20.8324C24.9558 19.1835 26.1961 16.7299 26.1961 13.9901C26.1961 11.2503 24.9558 8.79678 22.9996 7.14783C24.5884 5.80852 26.6494 5 28.9015 5C33.9265 5 38 9.02502 38 13.9901C38 18.9553 33.9265 22.9803 28.9015 22.9803C26.6494 22.9803 24.5884 22.1718 22.9996 20.8324Z" fill="#F9A000"></path><path fill-rule="evenodd" clip-rule="evenodd" d="M23.0001 20.8326C24.9564 19.1836 26.1969 16.7299 26.1969 13.99C26.1969 11.2501 24.9564 8.79642 23.0001 7.14746C21.0438 8.79642 19.8033 11.2501 19.8033 13.99C19.8033 16.7299 21.0438 19.1836 23.0001 20.8326Z" fill="#FF5E00"></path></svg>