<svg xmlns="http://www.w3.org/2000/svg" width="45" height="28" viewBox="0 0 45 28" fill="none"><path fill-rule="evenodd" clip-rule="evenodd" d="M12.7504 20.3501H9.3752L6.84421 10.6942C6.72408 10.25 6.46901 9.85737 6.0938 9.67229C5.15743 9.2072 4.12562 8.83706 3 8.65038V8.27863H8.43719C9.1876 8.27863 9.75041 8.83706 9.84421 9.48561L11.1574 16.4507L14.531 8.27863H17.8124L12.7504 20.3501ZM19.6886 20.3501H16.501L19.1258 8.27863H22.3134L19.6886 20.3501ZM26.4371 11.6226C26.5309 10.9724 27.0937 10.6007 27.7503 10.6007C28.7821 10.5073 29.9061 10.694 30.8441 11.1575L31.4069 8.55843C30.4689 8.18668 29.4371 8 28.5007 8C25.4069 8 23.1557 9.67208 23.1557 11.9927C23.1557 13.7581 24.7503 14.6851 25.8759 15.2435C27.0937 15.8003 27.5627 16.1721 27.4689 16.7289C27.4689 17.5641 26.5309 17.9359 25.5945 17.9359C24.4689 17.9359 23.3433 17.6575 22.3131 17.1924L21.7503 19.793C22.8759 20.2565 24.0937 20.4432 25.2193 20.4432C28.6883 20.5349 30.8441 18.8645 30.8441 16.3572C30.8441 13.1997 26.4371 13.0146 26.4371 11.6226ZM42.0002 20.3501L39.4692 8.27863H36.7506C36.1878 8.27863 35.625 8.65038 35.4374 9.2072L30.7506 20.3501H34.032L34.687 18.5863H38.7188L39.094 20.3501H42.0002ZM37.2196 11.529L38.1559 16.0785H35.5312L37.2196 11.529Z" fill="#0072FF"></path></svg>