<svg xmlns="http://www.w3.org/2000/svg" width="45" height="28" viewBox="0 0 45 28" fill="none"><path d="M18.5728 13.7864C18.5728 15.8515 17.7525 17.832 16.2922 19.2922C14.832 20.7525 12.8515 21.5728 10.7864 21.5728C8.72133 21.5728 6.74083 20.7525 5.28059 19.2922C3.82035 17.832 3 15.8515 3 13.7864C3 11.7213 3.82035 9.74083 5.28059 8.28059C6.74083 6.82035 8.72133 6 10.7864 6C12.8515 6 14.832 6.82035 16.2922 8.28059C17.7525 9.74083 18.5728 11.7213 18.5728 13.7864Z" fill="#FB3F1D"></path><path d="M22.7109 9.10547V18.414H24.3036V15.136H25.0242C27.0665 15.136 28.5865 14.17 28.5865 12.1207C28.5865 10.0715 27.1592 9.10547 25.2838 9.10547H22.7109ZM24.3036 10.39H25.2838C26.5725 10.39 26.9365 11.2612 26.9365 12.1207C26.9365 12.9803 26.5725 13.8515 25.2838 13.8515H24.3036V10.39Z" fill="black"></path><path d="M18.506 13.7599C18.506 15.8058 17.6933 17.7678 16.2466 19.2145C14.7999 20.6611 12.8379 21.4739 10.792 21.4739C8.74611 21.4739 6.78403 20.6611 5.33738 19.2145C3.89072 17.7678 3.078 15.8058 3.078 13.7599C3.078 11.714 3.89072 9.75193 5.33738 8.30527C6.78403 6.85862 8.74611 6.0459 10.792 6.0459C12.8379 6.0459 14.7999 6.85862 16.2466 8.30527C17.6933 9.75193 18.506 11.714 18.506 13.7599Z" fill="#FB3F1D"></path><path d="M13.4649 18.3834H11.855V10.3874H11.1366C9.8196 10.3874 9.12776 11.0524 9.12776 12.0371C9.12776 13.1544 9.60668 13.6735 10.591 14.3388L11.4026 14.8844L9.0611 18.3834H7.31824L9.42029 15.2568C8.20973 14.3918 7.53116 13.5537 7.53116 12.1303C7.53116 10.3473 8.76858 9.13672 11.1234 9.13672H13.4649V18.3834Z" fill="white"></path><path d="M30.9694 9.10547L28.5314 18.414H29.8623L30.3793 16.4079H33.266L33.7746 18.414H35.4196L32.9816 9.10547H30.9694ZM31.8346 10.76L32.9406 15.1234H30.7102L31.8346 10.76Z" fill="black"></path><path d="M34.9021 9.10547L37.6548 14.4406V18.414H39.2475V14.4406L42.0002 9.10547H40.4728L38.5494 13.03L36.6258 9.10547H34.9021Z" fill="black"></path></svg>